PathFileType	4	(X/Y/Z)	21_1_35_p1_0-543_filt_butterworth.trc
DataRate	CameraRate	NumFrames	NumMarkers	Units	OrigDataRate	OrigDataStartFrame	OrigNumFrames
60.0	60.0	5	27	m	60.0	0	543
Frame#	Time	RHip			RKnee			RAnkle			RBigToe			RSmallToe			RHeel			LHip			LKnee			LAnkle			LBigToe			LSmallToe			LHeel			Neck			Head			Nose			RShoulder			RElbow			RWrist			RThumb			RIndex			RPinky			LShoulder			LElbow			LWrist			LThumb			LIndex			LPinky			
		X1	Y1	Z1	X2	Y2	Z2	X3	Y3	Z3	X4	Y4	Z4	X5	Y5	Z5	X6	Y6	Z6	X7	Y7	Z7	X8	Y8	Z8	X9	Y9	Z9	X10	Y10	Z10	X11	Y11	Z11	X12	Y12	Z12	X13	Y13	Z13	X14	Y14	Z14	X15	Y15	Z15	X16	Y16	Z16	X17	Y17	Z17	X18	Y18	Z18	X19	Y19	Z19	X20	Y20	Z20	X21	Y21	Z21	X22	Y22	Z22	X23	Y23	Z23	X24	Y24	Z24	X25	Y25	Z25	X26	Y26	Z26	X27	Y27	Z27	
0	0.0	0.3014300096060564	0.4956998035945772	1.1406972183040975	0.2970051921443662	0.5553184119183043	1.5472141620248636	0.28762727637516305	0.6039521480804567	1.943011056108744	0.28645358667614507	0.47305856016874503	1.9909983241855158	0.3472322915508549	0.49067600723287524	1.9932735910554529	0.26294135897508475	0.6730749459895298	2.017209763840772	0.10625386844496629	0.4921608810835108	1.1476314962859635	0.09204232723740297	0.5703930120007369	1.558685230147624	0.08401509836786078	0.6076623875857871	1.9696052806873618	0.09951901862919352	0.4878899617272896	1.9981137539382576	0.05474028840377998	0.4984750105013943	1.988678750206721	0.10046236115912616	0.6343436463692848	2.003764406363517	0.22956958621990878	0.456489186640986	0.5536035691966845	0.23923625196279788	0.4220526511123517	0.3083198401439071	0.22869708311883793	0.34458485685242635	0.4396072746649143	0.3631816144664003	0.45416291789782126	0.6358829957344164	0.3811058020901764	0.451649107467249	0.8908902937615464	0.2926969390415362	0.33586469149963727	1.065329882068545	0.22414780000167156	0.3600053499591136	1.1678207682529798	0.21805213764543402	0.3611392216749092	1.1866956807360596	0.2165351997587893	0.36473882549921066	1.1843130078511226	0.07322269508905004	0.4430349092537391	0.6265217338107735	0.05241842253220586	0.4176895941333224	0.8677367165484713	0.18096807733802264	0.3107732443950885	1.0502403086029513	0.2393773950095363	0.3268221898435377	1.131236700561676	0.23929919631642851	0.3298768230645677	1.1722957708046404	0.2172986965090816	0.34914470091291316	1.1904532689381224
1	0.0166666666666666	0.30093733453056326	0.49574769904242516	1.1351574486179787	0.30321587332926736	0.5635148541577153	1.5500217490979624	0.2872415638803574	0.6039602358883508	1.945915285391625	0.2860965719464007	0.4761047579743976	1.994752593860771	0.34928035929881207	0.5141831418824169	2.0057003215350195	0.25940808339894084	0.6574744645131089	2.009320804840093	0.10638195046343757	0.4932019022293833	1.1412243245694746	0.09169808732254794	0.5715740403134204	1.5573793047628444	0.0847555409039665	0.6092359223463527	1.9734555455014875	0.09890936817138105	0.4785073317117017	1.994173345900136	0.05520940137066853	0.4939503357299405	1.985791115553522	0.1005673403323971	0.6337570213108995	2.0034693260218615	0.2295783213619603	0.456411017099216	0.5535310467648356	0.23925617391099638	0.4220022935311942	0.30832224494916444	0.22871501000146197	0.3445022693304209	0.43959513361019953	0.36314918972848703	0.45406698980326893	0.6356735925243945	0.38370738239469443	0.4429484391709502	0.8921434720254451	0.29272335293293755	0.33973542732600004	1.0667166575589904	0.2231894598124063	0.35314716321901457	1.1685231912299825	0.2170125660187882	0.35915178153040794	1.187575116356158	0.21626516531264034	0.3662070679999051	1.1839340075346587	0.07329464214399935	0.4431307580972403	0.6264827140285174	0.04948203764773863	0.4165848175391892	0.8648336554844568	0.18080966033045479	0.310517820767913	1.0520117117309769	0.23860995980968078	0.3179540779708114	1.1295954432260191	0.2377151995701438	0.3251592546134709	1.1731405404526205	0.21560301456456124	0.353364925984427	1.1882599849039064
2	0.0333333333333333	0.30153677409422425	0.49570485532066094	1.1299836857395178	0.3062068649931081	0.5699100754600124	1.551637382747175	0.28682789356196864	0.6043331379208978	1.9477467110146294	0.2859268023895326	0.47837365565266066	1.9969526245539737	0.3505637583533523	0.5279094126316729	2.0138434077288734	0.2576704077369213	0.6503626907734266	2.00568450114977	0.10653712147685607	0.4937648225091762	1.1366151822068555	0.09161746738524298	0.572216385620164	1.5560124488364229	0.08517187139888216	0.6102006544521198	1.9758500180756422	0.09836658904895267	0.474354321653546	1.9925178454656272	0.055273289444881524	0.4895276493449666	1.9829913005322162	0.10062324662688134	0.6334244756298435	2.003301031246863	0.22958372558756446	0.4563126930892663	0.5535914509449162	0.2392523108460438	0.4220077509863742	0.30829926935773977	0.2287498246995188	0.3445104766775931	0.4395863341945517	0.3631374247103725	0.4538838430671547	0.6362193557494914	0.38530100315287275	0.4375417890831267	0.8930828334081115	0.2917593623318852	0.3443626658662879	1.0688303172109344	0.22172065167256458	0.35118168191644217	1.1703744315945261	0.215474300154621	0.3608320218078809	1.1905747691150492	0.21511123586179334	0.36939906272428863	1.1852499680708064	0.07334678732442068	0.4432038825449366	0.6264224471912498	0.04670094995162584	0.4177160396257042	0.8626680152354912	0.1791767293589637	0.31388091334036144	1.0534418642358652	0.23679902968677768	0.31673383479950334	1.1300004487654918	0.2343774225039747	0.32717119893613483	1.1766004472596039	0.21335908915248686	0.357257841831066	1.1872557490782194
3	0.05	0.30272978679248713	0.495587225063848	1.1254279668503084	0.3062531187786605	0.5733787046578309	1.5520852741245001	0.2865159010194656	0.6048840964964952	1.9483031635961248	0.28594180002327313	0.48005395488390223	1.99781337057754	0.3510033049011528	0.5315161303426807	2.0169148133620567	0.2575654050614841	0.6517346787311857	2.006245971410734	0.10672671862805011	0.49384069538584335	1.1346940184640055	0.0917293492073436	0.5723669268120941	1.5549914867623076	0.08516237228119314	0.6105089170765273	1.9769969660836249	0.0978082035402669	0.4766157341930659	1.993917673732097	0.055036158526794	0.4864235634005217	1.9809528227881228	0.10062881578518196	0.633350214117397	2.0032666473649066	0.2295681053122362	0.45619427296180376	0.553989490417247	0.23919718991808536	0.422120817943368	0.30822438871178126	0.22878922538878024	0.3445803924371898	0.4395713315520019	0.36314631023952015	0.45357651699956647	0.6379242096324661	0.38573402814100305	0.4360715015148091	0.8936066663729497	0.2903875923722691	0.3505521234506941	1.071739207287828	0.2206790242113993	0.3540495114393461	1.1729379618694746	0.2139052613164332	0.3662291118685825	1.1951204015389276	0.21322758089715813	0.37367273692520314	1.1878041873008631	0.07335685744024596	0.4432207064148668	0.6263597332265125	0.04438982134743558	0.4207297486674687	0.8613991907107572	0.1756398310863007	0.3221348306952656	1.0551280204132514	0.23395375723611417	0.32453039705089437	1.132424411482039	0.2298089656660801	0.335561467518931	1.1824031656099359	0.21079810714124633	0.35988368867475296	1.1879447350532375
4	0.0666666666666666	0.3031083744218293	0.4956179280535218	1.1221288904682931	0.30552902716507224	0.574512234084828	1.5525781716740474	0.2863866804635177	0.6052845952882675	1.9481464517954885	0.28606425955490494	0.4811940135200007	1.997896375807063	0.3508336568161322	0.5302422909912325	2.0162717222356443	0.25781145108173736	0.6557577446494943	2.0082161840511876	0.10684827404406766	0.4938384668262997	1.134960872633809	0.09183162631013884	0.572393559433849	1.5546180940592165	0.08482119317522994	0.6104980899127529	1.9780618908513898	0.09702808252428168	0.48214578005899683	1.9971319232792308	0.054957576189747795	0.4852423883717423	1.9799788121522135	0.10061486985153971	0.6333862402907023	2.0033006866027216	0.2295105657229658	0.45608248792580547	0.5548602219911909	0.2391025393167134	0.42230266932995836	0.3081105726633832	0.22874645621905298	0.3443618482003311	0.4395276412782714	0.36315929099813193	0.4532227585809368	0.6402459038015841	0.38526814452185065	0.43770075343185777	0.8937405404085498	0.2897341600097962	0.3569479896176877	1.0744584987657626	0.22071583640776296	0.3580053247972684	1.1748468870401594	0.21297579538706612	0.3716656268739768	1.1985289529655996	0.21155413007179313	0.376836183370116	1.1899473392694955	0.07330334161429072	0.44315488698612565	0.6264096127664167	0.04305394105531401	0.4235601198408067	0.8608816925745656	0.17125675583702418	0.3329946578129482	1.0578588888618117	0.2306995997328744	0.3354840904103299	1.1351364629487886	0.2257153225444149	0.34465651631220673	1.188301680461469	0.20881377130099257	0.361051364980585	1.1895955784307293
